<svg id="visual" viewBox="0 0 900 600" width="900" height="600" xmlns="http://www.w3.org/2000/svg" xmlns:xlink="http://www.w3.org/1999/xlink" version="1.1"><rect x="0" y="0" width="900" height="600" fill="#303030"></rect><path d="M66 0L84.8 16.7C103.7 33.3 141.3 66.7 157.7 100C174 133.3 169 166.7 147.7 200C126.3 233.3 88.7 266.7 75.5 300C62.3 333.3 73.7 366.7 89.8 400C106 433.3 127 466.7 127.2 500C127.3 533.3 106.7 566.7 96.3 583.3L86 600L0 600L0 583.3C0 566.7 0 533.3 0 500C0 466.7 0 433.3 0 400C0 366.7 0 333.3 0 300C0 266.7 0 233.3 0 200C0 166.7 0 133.3 0 100C0 66.7 0 33.3 0 16.7L0 0Z" fill="#ffffff" stroke-linecap="round" stroke-linejoin="miter"></path></svg>